<?xml version="1.0" encoding="UTF-8"?>
<!DOCTYPE svg PUBLIC "-//W3C//DTD SVG 1.1//EN" "http://www.w3.org/Graphics/SVG/1.1/DTD/svg11.dtd">
<!-- Creator: CorelDRAW X8 -->
<svg xmlns="http://www.w3.org/2000/svg" xml:space="preserve" width="17.7798mm" height="10.4138mm" version="1.1" style="shape-rendering:geometricPrecision; text-rendering:geometricPrecision; image-rendering:optimizeQuality; fill-rule:evenodd; clip-rule:evenodd"
viewBox="0 0 17780 10414"
 xmlns:xlink="http://www.w3.org/1999/xlink">
 <defs>
  <style type="text/css">
   <![CDATA[
    .fil0 {fill:black}
    .fil1 {fill:#C70000}
   ]]>
  </style>
 </defs>
 <g id="Слой_x0020_1">
  <metadata id="CorelCorpID_0Corel-Layer"/>
  <g id="_2434752692368">
   <path class="fil0" d="M1587 9329l-365 0 0 278 187 0c83,0 149,25 196,73 47,48 70,114 70,199 0,85 -24,152 -72,203 -47,49 -113,74 -198,74l-301 0 0 -928 483 0 0 101zm-365 378l0 349 186 0c47,0 84,-16 111,-49 26,-33 39,-76 39,-129 0,-53 -13,-95 -39,-125 -26,-30 -63,-46 -111,-46l-186 0zm710 -3l142 0c66,1 119,21 158,61 39,40 58,94 58,163 0,69 -19,124 -59,166 -39,41 -92,62 -157,62l-254 0 0 -689 112 0 0 237zm569 452l-113 0 0 -689 113 0 0 689zm-569 -356l0 260 140 0c34,0 59,-11 78,-34 18,-22 28,-54 28,-94 0,-39 -9,-70 -28,-95 -18,-24 -43,-36 -75,-37l-143 0zm1005 273c37,0 67,-12 90,-35 22,-23 34,-56 37,-99l106 0c-3,66 -26,121 -71,165 -44,43 -98,65 -162,65 -86,0 -151,-27 -196,-80 -45,-54 -67,-135 -67,-241l0 -76c0,-104 22,-183 67,-237 45,-54 110,-81 195,-81 71,0 127,22 168,67 41,44 63,105 66,183l-106 0c-3,-51 -15,-90 -37,-115 -22,-26 -52,-38 -91,-38 -50,0 -87,16 -111,49 -25,33 -37,87 -38,162l0 88c0,81 12,139 36,172 24,34 62,51 114,51zm799 -511l-188 0 0 594 -112 0 0 -594 -186 0 0 -95 486 0 0 95zm617 282c0,110 -20,191 -59,245 -39,53 -95,80 -167,80 -69,0 -122,-26 -160,-79l0 331 -112 0 0 -954 102 0 6 76c38,-60 92,-89 162,-89 76,0 133,26 170,79 37,52 57,131 58,236l0 75zm-112 -64c0,-77 -12,-134 -36,-171 -24,-37 -62,-55 -115,-55 -54,0 -95,27 -123,81l0 359c28,52 69,79 125,79 51,0 88,-19 112,-55 24,-37 36,-93 37,-169l0 -69zm234 -1c0,-100 24,-179 72,-237 49,-59 114,-88 194,-88 79,0 144,28 192,85 49,57 74,135 75,233l0 72c0,100 -24,179 -72,238 -49,58 -113,87 -194,87 -80,0 -144,-28 -193,-85 -48,-56 -73,-133 -74,-229l0 -76zm113 65c0,71 13,127 41,168 28,40 66,61 113,61 99,0 150,-72 153,-216l0 -78c0,-70 -14,-126 -42,-167 -28,-41 -65,-61 -112,-61 -47,0 -84,20 -112,61 -28,41 -41,97 -41,167l0 65zm987 -282l-188 0 0 594 -112 0 0 -594 -185 0 0 -95 485 0 0 95zm464 594c-7,-15 -12,-40 -15,-75 -40,59 -91,88 -153,88 -62,0 -111,-18 -146,-52 -35,-36 -53,-85 -53,-149 0,-70 24,-126 72,-167 47,-41 113,-62 195,-63l83 0 0 -73c0,-42 -9,-71 -27,-88 -18,-18 -46,-26 -84,-26 -34,0 -61,10 -83,30 -21,20 -31,46 -31,77l-113 0c0,-36 10,-69 31,-101 21,-32 49,-58 84,-76 35,-18 75,-27 118,-27 71,0 124,17 161,53 37,34 56,85 56,153l0 348c1,53 8,99 22,138l0 10 -117 0zm-151 -90c28,0 54,-7 79,-23 25,-15 44,-34 55,-57l0 -164 -64 0c-53,0 -95,12 -126,36 -31,23 -47,55 -47,97 0,39 8,67 24,85 15,18 42,26 79,26zm1341 -292c0,126 -27,224 -81,292 -54,69 -131,103 -230,103 -96,0 -172,-33 -227,-100 -55,-66 -84,-160 -86,-282l0 -175c0,-124 27,-221 82,-291 55,-70 131,-106 229,-106 98,0 174,34 229,102 54,67 82,163 84,288l0 169zm-117 -163c0,-98 -16,-171 -48,-218 -32,-48 -81,-72 -148,-72 -64,0 -112,24 -146,72 -32,49 -49,120 -49,214l0 167c0,94 16,167 49,216 33,50 82,75 148,75 65,0 114,-23 145,-69 31,-46 48,-116 49,-211l0 -174zm766 545l-112 0 0 -592 -249 0 0 592 -114 0 0 -689 475 0 0 689zm303 -452l142 0c66,1 118,21 157,61 40,40 59,94 59,163 0,69 -20,124 -59,166 -40,41 -92,62 -157,62l-254 0 0 -689 112 0 0 237zm568 452l-112 0 0 -689 112 0 0 689zm-568 -356l0 260 140 0c33,0 59,-11 77,-34 19,-22 28,-54 28,-94 0,-39 -9,-70 -27,-95 -18,-24 -43,-36 -75,-37l-143 0zm1201 -238l-188 0 0 594 -112 0 0 -594 -186 0 0 -95 486 0 0 95zm912 -233l-365 0 0 278 188 0c83,0 148,25 195,73 47,48 71,114 71,199 0,85 -24,152 -72,203 -48,49 -114,74 -198,74l-301 0 0 -928 482 0 0 101zm-365 378l0 349 186 0c48,0 85,-16 111,-49 27,-33 40,-76 40,-129 0,-53 -13,-95 -40,-125 -26,-30 -62,-46 -110,-46l-187 0zm835 462c-86,0 -151,-26 -197,-77 -46,-51 -70,-126 -71,-225l0 -84c0,-103 23,-183 67,-241 45,-59 108,-88 188,-88 81,0 141,25 181,77 40,51 61,131 62,240l0 74 -385 0 0 16c0,74 13,128 41,161 28,34 68,51 121,51 33,0 62,-7 87,-19 25,-13 49,-33 71,-60l59 72c-49,68 -124,103 -224,103zm-13 -618c-46,0 -81,16 -104,48 -22,32 -35,82 -38,149l272 0 0 -15c-3,-66 -15,-112 -36,-140 -20,-28 -52,-42 -94,-42zm802 104c0,31 -8,59 -24,85 -16,26 -38,46 -67,62 68,27 101,81 101,160 0,65 -21,115 -63,151 -41,37 -96,55 -165,55 -67,0 -123,-19 -167,-58 -43,-39 -65,-92 -65,-158l112 0c0,34 11,63 34,87 23,24 52,36 86,36 35,0 63,-11 84,-32 21,-21 32,-47 32,-81 0,-38 -9,-66 -27,-82 -17,-17 -44,-26 -80,-26l-104 0 0 -99 111 0c60,-3 89,-36 89,-100 0,-32 -9,-58 -28,-76 -18,-19 -43,-29 -76,-29 -32,0 -59,11 -80,32 -22,21 -32,47 -32,77l-112 0c0,-60 21,-109 64,-147 42,-38 96,-58 160,-58 68,0 121,18 159,53 38,34 58,84 58,148zm348 314l125 -502 120 0 -226 787c-17,59 -41,104 -72,134 -31,31 -66,47 -106,47 -15,0 -34,-4 -58,-11l0 -95 25 2c32,0 58,-7 76,-23 19,-15 34,-42 45,-80l23 -78 -203 -683 123 0 128 502zm840 187l-112 0 0 -592 -249 0 0 592 -114 0 0 -689 475 0 0 689zm679 -312c0,110 -20,191 -59,245 -39,53 -95,80 -167,80 -69,0 -122,-26 -160,-79l0 331 -112 0 0 -954 102 0 6 76c38,-60 92,-89 162,-89 76,0 133,26 170,79 37,52 57,131 58,236l0 75zm-112 -64c0,-77 -12,-134 -36,-171 -24,-37 -62,-55 -115,-55 -54,0 -95,27 -123,81l0 359c28,52 69,79 125,79 51,0 88,-19 112,-55 24,-37 36,-93 37,-169l0 -69zm504 389c-86,0 -152,-26 -198,-77 -46,-51 -69,-126 -70,-225l0 -84c0,-103 23,-183 67,-241 45,-59 108,-88 188,-88 81,0 141,25 181,77 40,51 61,131 61,240l0 74 -385 0 0 16c0,74 14,128 42,161 28,34 68,51 120,51 34,0 63,-7 88,-19 25,-13 49,-33 71,-60l59 72c-49,68 -124,103 -224,103zm-13 -618c-46,0 -81,16 -104,48 -22,32 -35,82 -38,149l272 0 0 -15c-3,-66 -15,-112 -36,-140 -20,-28 -52,-42 -94,-42zm826 605l-114 0 0 -247c-41,12 -83,18 -127,18 -70,0 -125,-22 -164,-65 -39,-44 -59,-106 -61,-187l0 -209 113 0 0 212c3,101 40,152 112,152 43,0 85,-7 127,-19l0 -344 114 0 0 689zm663 0l-113 0 0 -294 -248 0 0 294 -114 0 0 -689 114 0 0 298 248 0 0 -298 113 0 0 689zm156 -377c0,-100 24,-179 72,-237 49,-59 113,-88 193,-88 80,0 145,28 193,85 49,57 74,135 75,233l0 72c0,100 -24,179 -73,238 -48,58 -113,87 -193,87 -80,0 -144,-28 -193,-85 -48,-56 -73,-133 -74,-229l0 -76zm113 65c0,71 13,127 41,168 28,40 66,61 113,61 99,0 150,-72 153,-216l0 -78c0,-70 -14,-126 -42,-167 -28,-41 -65,-61 -113,-61 -46,0 -83,20 -111,61 -28,41 -41,97 -41,167l0 65zm805 229c37,0 67,-12 90,-35 22,-23 35,-56 37,-99l106 0c-2,66 -26,121 -70,165 -45,43 -99,65 -163,65 -85,0 -151,-27 -196,-80 -44,-54 -66,-135 -66,-241l0 -76c0,-104 22,-183 66,-237 45,-54 110,-81 195,-81 71,0 127,22 168,67 42,44 64,105 66,183l-106 0c-3,-51 -15,-90 -37,-115 -22,-26 -52,-38 -91,-38 -50,0 -87,16 -111,49 -24,33 -37,87 -38,162l0 88c0,81 12,139 36,172 24,34 62,51 114,51zm799 -511l-188 0 0 594 -112 0 0 -594 -185 0 0 -95 485 0 0 95zm241 142l142 0c66,1 119,21 158,61 39,40 58,94 58,163 0,69 -19,124 -59,166 -39,41 -92,62 -157,62l-254 0 0 -689 112 0 0 237zm0 96l0 260 140 0c34,0 59,-11 78,-34 18,-22 28,-54 28,-94 0,-39 -10,-70 -28,-95 -18,-24 -43,-36 -75,-37l-143 0z"/>
   <g>
    <path class="fil1" d="M4713 1222l-2727 2726 0 3730 15794 0 0 875c-2432,0 -14249,12 -16669,12l0 -3742 -492 493 -619 -619 1745 -1748 0 -1637 875 0 0 760 2088 -2093 2460 2460 -619 619 -1836 -1836z"/>
    <path class="fil0" d="M4234 3824l560 2146 559 -2146 783 0 0 2968 -601 0 0 -803 55 -1238 -593 2041 -408 0 -594 -2041 55 1238 0 803 -599 0 0 -2968 783 0zm3837 2363l-817 0 -160 605 -634 0 928 -2968 548 0 934 2968 -640 0 -159 -605zm-687 -501l554 0 -277 -1059 -277 1059zm3732 119c-15,339 -110,595 -286,768 -175,174 -422,261 -741,261 -336,0 -593,-111 -772,-331 -179,-221 -268,-537 -268,-946l0 -500c0,-408 93,-723 277,-944 185,-221 442,-331 771,-331 323,0 569,90 737,271 168,180 263,440 286,778l-601 0c-6,-209 -38,-353 -97,-433 -59,-80 -168,-119 -325,-119 -161,0 -274,56 -341,168 -66,113 -102,297 -106,555l0 561c0,295 33,499 99,609 66,110 179,165 340,165 157,0 266,-38 326,-115 60,-77 93,-216 102,-417l599 0zm2233 -1480l-734 0 0 2467 -601 0 0 -2467 -722 0 0 -501 2057 0 0 501zm1878 1185l-934 0 0 785 1105 0 0 497 -1704 0 0 -2968 1700 0 0 501 -1101 0 0 701 934 0 0 484zm1116 238l0 1044 -600 0 0 -2968 1011 0c294,0 528,91 703,273 175,182 261,418 261,709 0,291 -86,521 -258,690 -173,168 -412,252 -718,252l-399 0zm0 -501l411 0c115,0 203,-37 265,-112 63,-74 94,-183 94,-325 0,-147 -32,-265 -96,-352 -63,-87 -149,-132 -257,-133l-417 0 0 922z"/>
   </g>
  </g>
 </g>
</svg>
