<?xml version="1.0" encoding="UTF-8"?>
<!DOCTYPE svg PUBLIC "-//W3C//DTD SVG 1.1//EN" "http://www.w3.org/Graphics/SVG/1.1/DTD/svg11.dtd">
<!-- Creator: CorelDRAW 2019 (64-Bit) -->
<svg xmlns="http://www.w3.org/2000/svg" xml:space="preserve" width="30mm" height="20mm" version="1.1" style="shape-rendering:geometricPrecision; text-rendering:geometricPrecision; image-rendering:optimizeQuality; fill-rule:evenodd; clip-rule:evenodd"
viewBox="0 0 30000 20000"
 xmlns:xlink="http://www.w3.org/1999/xlink"
 xmlns:xodm="http://www.corel.com/coreldraw/odm/2003">
 <defs>
  <style type="text/css">
   <![CDATA[
    .fil0 {fill:#1A3D8F}
    .fil2 {fill:#373435;fill-rule:nonzero}
    .fil1 {fill:#1A3D8F;fill-rule:nonzero}
   ]]>
  </style>
 </defs>
 <g id="Слой_x0020_1">
  <metadata id="CorelCorpID_0Corel-Layer"/>
  <g id="_1888561243792">
   <path class="fil0" d="M1920.9 5379.2l2380.2 0c1194.5,0 2035.5,977.5 2035.5,2171.8l0 0.1c0,1194.3 -841.2,2171.8 -2035.5,2171.8l-2380.2 0 0 1257.9 -1539.2 0 0 -5602.6 1539.2 0 0 1zm104.4 973.8l1780 0c659,0 1122.9,539.3 1122.9,1198l0 0.1c0,658.7 -464.2,1198 -1122.9,1198l-1780 0 0 -2396.1z"/>
   <path class="fil0" d="M10354.9 5361l236.9 0 2290.6 0c263.1,0 478.4,215.3 478.4,478.5l0 5121.2 -1497.8 0c2.3,-394.6 4.7,-789.3 7,-1184 2.1,-83.3 -34.7,-139.4 -138.2,-148.8 -899.4,2.2 -1798.8,4.4 -2698.2,6.7 -89,11.6 -145.5,50.7 -171.2,115.1l-354.1 1211 -1447.9 0 1014.9 -3927.4c299.5,-1159.2 865.8,-1672.3 2279.6,-1672.3zm144.1 1126.5l98.1 0 1011.7 0c109,0 198.1,89.2 198.1,198.1l0 2120.3c-676.8,0 -1704.6,0 -2542.7,0 -158.5,0 -134.9,22.1 -94.2,-135.2l385.2 -1490.9c124.1,-479.9 358.5,-692.3 943.8,-692.3z"/>
   <path class="fil0" d="M17860.5 5369.5l236.8 0 2443.1 0c263.2,0 478.3,215.3 478.3,478.4l0 5119.9c-2129.5,0 -4259.4,0 -6388.9,0 0,-285.7 0,-571.4 0,-857.1 11.1,-65.4 58,-97.6 132.5,-104.9l583.3 0 766 -2964.5c299.5,-1158.8 335.5,-1671.8 1748.9,-1671.8zm600 1048.2l144.4 0 872.6 0c160.5,0 293.5,131.7 291.7,291.7l-39.7 3270.4c-914.9,0 -1829.8,0 -2744.7,0 -135.5,10.6 -166.6,-46.1 -122.6,-151.3l531.8 -2391.3c158.5,-712.5 204.6,-1019.5 1066.5,-1019.5z"/>
   <path class="fil1" d="M24106 8160.5c0,705.7 102.7,999.6 445,1393.5 341.8,393.1 815.4,590.3 1423.4,590.3 606.5,0 1079.3,-196.5 1420.3,-589 340.2,-391.7 578.9,-686.4 578.9,-1394.8 0,-705.6 -169.6,-984.5 -509,-1375.7 -338.6,-390.3 -812.2,-586.2 -1421.7,-586.2 -608.1,0 -1081.7,195.8 -1423.4,586.2 -342.4,391.1 -513.5,670.1 -513.5,1375.7zm-1444.6 0c0,-864.4 310.9,-1560.6 931,-2089.7 620.3,-528 1437,-792.5 2450.5,-792.5 1014.8,0 1830.1,264.5 2448.9,792.5 617.1,529.1 926.4,1225.3 926.4,2089.7 0,867.2 -309.3,1564.7 -929.6,2095.3 -618.5,530.6 -1433.9,795.3 -2445.7,795.3 -1013.5,0 -1830.2,-266.1 -2450.5,-796.7 -620.1,-531.9 -931,-1229.4 -931,-2093.9z"/>
   <rect class="fil0" x="384.2" y="12741.5" width="29044.8" height="553.9"/>
   <path class="fil2" d="M1534.7 18732.3l189.9 0 -1.9 572.8 -203.5 0 0 -397.8 -954.4 0 0 397.8 -204.2 0 -1.1 -572.8 118.6 0c51.9,-66 94.3,-164.8 127.3,-297.4 32.9,-132.3 53.8,-280.4 62.5,-443.7l31.1 -700.1 835.7 0 0 1441.2zm-839.9 0l635.7 0 0 -1266.2 -433.8 0 -23.5 521.7c-8.7,170.9 -29.1,318.2 -61,442.1 -31.8,123.9 -70.8,224.7 -117.4,302.4z"/>
   <path id="1" class="fil2" d="M2998.7 18241.3c0,220.8 -47,390.6 -140.9,509.9 -94,119.3 -227.7,178.8 -400.9,178.8 -166.7,0 -298.1,-57.9 -394.7,-173.9 -96.3,-115.9 -146.7,-279.6 -150.5,-491.4l0 -304.2c0,-216.3 47.8,-385.7 143.3,-508.4 95.4,-122.4 228.8,-183.8 399.7,-183.8 170.1,0 302.7,58.7 397.8,176.2 95.1,117.1 143.9,284.9 146.2,502.4l0 294.4zm-203.4 -283.1c0,-170.8 -27.7,-297.8 -83.8,-381.1 -55.7,-83 -141.3,-124.6 -256.8,-124.6 -111.8,0 -196.3,42 -253.5,126.5 -57.6,84.1 -86.4,208.4 -87.1,372.8l0 289.5c0,164.8 28.4,290.5 86,376.9 57.2,86.8 142.8,130 256.8,130 114.1,0 198.2,-39.8 253.1,-119.7 54.6,-80 83.4,-202.4 85.3,-367.2l0 -303.1z"/>
   <path id="2" class="fil2" d="M4146.3 17466.1l-636.2 0 0 484.2 326.6 0c144.8,0.7 258.4,43.2 340.6,127.3 82.2,83.7 123.2,199.6 123.2,346.6 0,148.2 -41.7,265.6 -124.7,352.8 -83.3,86.7 -198.5,130.3 -345.9,130.3l-524 0 0 -1616.2 840.4 0 0 175zm-636.2 659.2l0 607 324.4 0c82.5,0 147,-28.5 192.8,-85.7 45.8,-56.8 69,-131.8 69,-225 0,-91.7 -22.8,-164.1 -68.2,-217.1 -45.5,-52.7 -109.9,-79.2 -192.5,-79.2l-325.5 0z"/>
   <path id="3" class="fil2" d="M4765 18275.4l0 631.9 -203.1 0 0 -1616.2 515.3 0c150,0 268.2,45 353.8,134.8 86,90.2 128.8,209.9 128.8,359.6 0,155.3 -40.9,275.4 -122.7,359.1 -81.9,84.1 -197,127.7 -345.5,130.8l-326.6 0zm0 -175.1l312.2 0c90.1,0 159.5,-26.9 207.6,-81.1 47.7,-54.1 72,-131.4 72,-232.2 0,-97 -24.7,-174.7 -74.3,-233 -49.6,-58.7 -117.8,-87.9 -204.2,-87.9l-313.3 0 0 634.2z"/>
   <path id="4" class="fil2" d="M6873.7 18241.3c0,220.8 -47,390.6 -140.9,509.9 -94,119.3 -227.7,178.8 -400.9,178.8 -166.7,0 -298.1,-57.9 -394.7,-173.9 -96.3,-115.9 -146.7,-279.6 -150.5,-491.4l0 -304.2c0,-216.3 47.8,-385.7 143.3,-508.4 95.4,-122.4 228.8,-183.8 399.7,-183.8 170.1,0 302.7,58.7 397.8,176.2 95.1,117.1 143.9,284.9 146.2,502.4l0 294.4zm-203.4 -283.1c0,-170.8 -27.7,-297.8 -83.8,-381.1 -55.7,-83 -141.3,-124.6 -256.8,-124.6 -111.8,0 -196.3,42 -253.5,126.5 -57.6,84.1 -86.4,208.4 -87.1,372.8l0 289.5c0,164.8 28.4,290.5 86,376.9 57.2,86.8 142.8,130 256.8,130 114.1,0 198.2,-39.8 253.1,-119.7 54.6,-80 83.4,-202.4 85.3,-367.2l0 -303.1z"/>
   <path id="5" class="fil2" d="M8200.8 18393.2c-8.7,173.1 -57.5,305.7 -145.8,398.2 -88.3,92.4 -213.3,138.6 -374.7,138.6 -162.2,0 -290.6,-61.7 -386.1,-184.9 -95.5,-123.5 -143.2,-290.5 -143.2,-501.6l0 -293.2c0,-210.3 48.9,-376.6 147,-498.6 98.1,-122.4 231.9,-183.4 401.2,-183.4 156.1,0 277,46.6 362.2,140.2 85.6,93.6 132.2,227.3 139.4,401.2l-205.3 0c-8.7,-131.8 -36.7,-225.8 -83.3,-281.9 -46.7,-56.4 -117.5,-84.4 -213,-84.4 -110.2,0 -195.1,43.2 -254.2,129.2 -59.1,86.3 -88.6,212.5 -88.6,378.8l0 296.3c0,163.7 27.2,289.1 82.5,376.2 55,87.5 135.7,131.1 241.4,131.1 105.7,0 182.2,-26.1 228.8,-78.8 46.6,-52.7 75.4,-147 86.4,-283l205.3 0z"/>
   <path id="6" class="fil2" d="M9527.6 18241.3c0,220.8 -47,390.6 -140.9,509.9 -94,119.3 -227.7,178.8 -400.9,178.8 -166.7,0 -298.1,-57.9 -394.7,-173.9 -96.3,-115.9 -146.7,-279.6 -150.5,-491.4l0 -304.2c0,-216.3 47.8,-385.7 143.3,-508.4 95.4,-122.4 228.8,-183.8 399.7,-183.8 170.1,0 302.7,58.7 397.8,176.2 95.1,117.1 143.9,284.9 146.2,502.4l0 294.4zm-203.4 -283.1c0,-170.8 -27.7,-297.8 -83.8,-381.1 -55.7,-83 -141.3,-124.6 -256.8,-124.6 -111.8,0 -196.3,42 -253.5,126.5 -57.6,84.1 -86.4,208.4 -87.1,372.8l0 289.5c0,164.8 28.4,290.5 86,376.9 57.2,86.8 142.8,130 256.8,130 114.1,0 198.2,-39.8 253.1,-119.7 54.6,-80 83.4,-202.4 85.3,-367.2l0 -303.1z"/>
   <path id="7" class="fil2" d="M9841.3 18907.3l0 -1616.2 460.7 0c147,0 258,35.9 332.2,107.6 74.7,71.6 111.8,179.2 111.8,322.7 0,75.4 -18.9,141.7 -56.8,199.7 -37.5,57.6 -88.7,102.3 -153.1,134.1 73.9,22 132.6,67.8 175.8,136.4 43.6,69 65.2,151.9 65.2,248.9 0,145.1 -39.8,259.6 -119.4,342.5 -79.5,83 -193.2,124.3 -340.2,124.3l-476.2 0zm203.1 -757l0 582 277.7 0c76.9,0 137.9,-25.4 183,-76.2 45,-50.8 67.8,-122 67.8,-213.7 0,-194.7 -82.2,-292.1 -246.7,-292.1l-281.8 0zm0 -170.5l261 0c70.1,0 126.9,-23.5 170.1,-70.8 43.6,-47.4 65.2,-110.3 65.2,-188.7 0,-89 -19.7,-153.4 -59.1,-193.6 -39.1,-40.5 -98.9,-60.6 -179.6,-60.6l-257.6 0 0 513.7z"/>
   <polygon id="8" class="fil2" points="11855.8,18161.7 11284.1,18161.7 11284.1,18732.3 11950.1,18732.3 11950.1,18907.3 11081,18907.3 11081,17291.1 11939.1,17291.1 11939.1,17466.1 11284.1,17466.1 11284.1,17986.7 11855.8,17986.7 "/>
   <path id="9" class="fil2" d="M13223 18393.2c-8.7,173.1 -57.5,305.7 -145.8,398.2 -88.3,92.4 -213.3,138.6 -374.7,138.6 -162.2,0 -290.6,-61.7 -386.1,-184.9 -95.5,-123.5 -143.2,-290.5 -143.2,-501.6l0 -293.2c0,-210.3 48.9,-376.6 147,-498.6 98.1,-122.4 231.9,-183.4 401.2,-183.4 156.1,0 277,46.6 362.2,140.2 85.6,93.6 132.2,227.3 139.4,401.2l-205.3 0c-8.7,-131.8 -36.7,-225.8 -83.3,-281.9 -46.7,-56.4 -117.5,-84.4 -213,-84.4 -110.2,0 -195.1,43.2 -254.2,129.2 -59.1,86.3 -88.6,212.5 -88.6,378.8l0 296.3c0,163.7 27.2,289.1 82.5,376.2 55,87.5 135.7,131.1 241.4,131.1 105.7,0 182.2,-26.1 228.8,-78.8 46.6,-52.7 75.4,-147 86.4,-283l205.3 0z"/>
   <polygon id="10" class="fil2" points="14410.4,17466.1 13985.3,17466.1 13985.3,18907.3 13782.2,18907.3 13782.2,17466.1 13358.3,17466.1 13358.3,17291.1 14410.4,17291.1 "/>
   <polygon id="11" class="fil2" points="15706.5,18907.3 15502.3,18907.3 15502.3,18161.7 14852.2,18161.7 14852.2,18907.3 14648.7,18907.3 14648.7,17291.1 14852.2,17291.1 14852.2,17986.7 15502.3,17986.7 15502.3,17291.1 15706.5,17291.1 "/>
   <path id="12" class="fil2" d="M16272.6 17950.3l326.5 0c145.1,0.7 258.4,43.2 340.6,127.3 82.3,83.7 123.2,199.6 123.2,346.6 0,148.2 -41.7,265.6 -124.7,352.8 -83.3,86.7 -198.5,130.3 -345.9,130.3l-522.8 0 0 -1616.2 203.1 0 0 659.2zm1135.4 957l-203 0 0 -1616.2 203 0 0 1616.2zm-1135.4 -782l0 607 324.3 0c82.9,0 147,-28.5 193.2,-85.7 45.8,-56.8 68.6,-131.8 68.6,-225 0,-91.7 -22.8,-164.1 -68.2,-217.1 -45.5,-52.7 -109.9,-79.2 -192.5,-79.2l-325.4 0z"/>
   <polygon id="13" class="fil2" points="18248.8,17910.5 18553,17291.1 18791.7,17291.1 18370.8,18092.4 18800.4,18907.3 18559.8,18907.3 18248.8,18276.9 17937,18907.3 17696,18907.3 18127.9,18092.4 17705.1,17291.1 17942.6,17291.1 "/>
   <path id="14" class="fil2" d="M20619.4 18241.3c0,220.8 -47,390.6 -140.9,509.9 -94,119.3 -227.7,178.8 -400.9,178.8 -166.7,0 -298.1,-57.9 -394.7,-173.9 -96.3,-115.9 -146.7,-279.6 -150.5,-491.4l0 -304.2c0,-216.3 47.8,-385.7 143.3,-508.4 95.4,-122.4 228.8,-183.8 399.7,-183.8 170.1,0 302.7,58.7 397.8,176.2 95.1,117.1 143.9,284.9 146.2,502.4l0 294.4zm-203.4 -283.1c0,-170.8 -27.7,-297.8 -83.8,-381.1 -55.7,-83 -141.3,-124.6 -256.8,-124.6 -111.8,0 -196.3,42 -253.5,126.5 -57.6,84.1 -86.4,208.4 -87.1,372.8l0 289.5c0,164.8 28.4,290.5 86,376.9 57.2,86.8 142.8,130 256.8,130 114.1,0 198.2,-39.8 253.1,-119.7 54.6,-80 83.4,-202.4 85.3,-367.2l0 -303.1z"/>
   <polygon id="15" class="fil2" points="21847.3,17466.1 21422.2,17466.1 21422.2,18907.3 21219.1,18907.3 21219.1,17466.1 20795.2,17466.1 20795.2,17291.1 21847.3,17291.1 "/>
   <path id="16" class="fil2" d="M22288.7 18275.4l0 631.9 -203.1 0 0 -1616.2 515.3 0c150,0 268.2,45 353.8,134.8 86,90.2 128.8,209.9 128.8,359.6 0,155.3 -40.9,275.4 -122.7,359.1 -81.9,84.1 -197,127.7 -345.5,130.8l-326.6 0zm0 -175.1l312.2 0c90.1,0 159.5,-26.9 207.6,-81.1 47.7,-54.1 72,-131.4 72,-232.2 0,-97 -24.7,-174.7 -74.3,-233 -49.6,-58.7 -117.8,-87.9 -204.2,-87.9l-313.3 0 0 634.2z"/>
   <path id="17" class="fil2" d="M23946.2 18484.5l-546.3 0 -125.4 422.8 -208.4 0 520.6 -1616.2 173.9 0 521.7 1616.2 -208.4 0 -127.7 -422.8zm-492.9 -175.1l440.7 0 -220.9 -734.2 -219.8 734.2z"/>
   <path id="18" class="fil2" d="M25503.7 18393.2c-8.7,173.1 -57.5,305.7 -145.8,398.2 -88.3,92.4 -213.3,138.6 -374.7,138.6 -162.2,0 -290.6,-61.7 -386.1,-184.9 -95.5,-123.5 -143.2,-290.5 -143.2,-501.6l0 -293.2c0,-210.3 48.9,-376.6 147,-498.6 98.1,-122.4 231.9,-183.4 401.2,-183.4 156.1,0 277,46.6 362.2,140.2 85.6,93.6 132.2,227.3 139.4,401.2l-205.3 0c-8.7,-131.8 -36.7,-225.8 -83.3,-281.9 -46.7,-56.4 -117.5,-84.4 -213,-84.4 -110.2,0 -195.1,43.2 -254.2,129.2 -59.1,86.3 -88.6,212.5 -88.6,378.8l0 296.3c0,163.7 27.2,289.1 82.5,376.2 55,87.5 135.7,131.1 241.4,131.1 105.7,0 182.2,-26.1 228.8,-78.8 46.6,-52.7 75.4,-147 86.4,-283l205.3 0z"/>
   <path id="19" class="fil2" d="M26818 17291.1l0 1616.2 -204.2 0 0 -1441.2 -452 0 -24.2 679.7c-9.1,198.1 -27.7,349.7 -56.5,453.9 -29.2,104.5 -71.2,181.4 -126.5,231.1 -55.7,49.6 -128.5,75 -219,76.5l-62.1 0 0 -175 37.8 -2.3c53.8,-4.6 96.3,-25.4 126.6,-62.5 30.3,-37.5 53.4,-97 68.9,-178.1 15.6,-81.4 26.6,-205.7 33,-372.8l26.9 -825.5 851.3 0z"/>
   <polygon id="20" class="fil2" points="27953.1,18161.7 27381.4,18161.7 27381.4,18732.3 28047.4,18732.3 28047.4,18907.3 27178.3,18907.3 27178.3,17291.1 28036.4,17291.1 28036.4,17466.1 27381.4,17466.1 27381.4,17986.7 27953.1,17986.7 "/>
   <path id="21" class="fil2" d="M29149.5 17291.1l203.1 0 0 1616.2 -203.1 0 0 -1245.3 -629.7 1245.3 -204.2 0 0 -1616.2 204.2 0 0 1245.3 629.7 -1245.3zm21.2 -402.4c0,90.2 -30.7,162.9 -91.7,217.8 -61,55 -141.3,82.3 -240.2,82.3 -99.3,0 -179.6,-27.7 -241,-83 -61.3,-54.9 -92,-127.7 -92,-217.1l167.4 0c0,51.9 14.1,92.4 42.1,122 28.4,29.2 69.3,43.9 123.5,43.9 51.5,0 92.1,-14.4 121.2,-43.5 29.6,-28.8 44,-69.7 44,-122.4l166.7 0z"/>
   <path class="fil2" d="M744.5 15818.9l0 680.1 -218.6 0 0 -1739.3 554.5 0c161.5,0 288.7,48.5 380.8,145.1 92.6,97.1 138.7,225.9 138.7,387 0,167.1 -44.1,296.4 -132.1,386.5 -88.1,90.5 -212,137.4 -371.9,140.6l-351.4 0zm0 -188.3l335.9 0c97.1,0 171.7,-29 223.5,-87.3 51.3,-58.3 77.4,-141.5 77.4,-249.9 0,-104.4 -26.5,-188 -79.9,-250.8 -53.4,-63.2 -126.8,-94.6 -219.7,-94.6l-337.2 0 0 682.6z"/>
   <path id="1" class="fil2" d="M3013.9 15782.2c0,237.7 -50.6,420.4 -151.7,548.8 -101.1,128.5 -245,192.5 -431.4,192.5 -179.4,0 -320.8,-62.4 -424.8,-187.2 -103.6,-124.7 -157.8,-300.9 -161.9,-528.8l0 -327.4c0,-232.8 51.4,-415 154.1,-547.1 102.8,-131.7 246.3,-197.8 430.2,-197.8 183.1,0 325.8,63.2 428.1,189.6 102.3,126 154.9,306.6 157.4,540.6l0 316.8zm-219 -304.5c0,-183.9 -29.7,-320.5 -90.1,-410.2 -59.9,-89.3 -152.1,-134.1 -276.4,-134.1 -120.3,0 -211.2,45.2 -272.8,136.1 -61.9,90.6 -92.9,224.3 -93.7,401.2l0 311.5c0,177.4 30.5,312.8 92.5,405.7 61.6,93.4 153.7,139.9 276.4,139.9 122.8,0 213.3,-42.9 272.4,-128.9 58.7,-86 89.7,-217.7 91.7,-395.1l0 -326.1z"/>
   <path id="2" class="fil2" d="M4442.1 15945.7c-9.4,186.4 -62,329.1 -157,428.5 -95,99.5 -229.5,149.3 -403.2,149.3 -174.5,0 -312.7,-66.5 -415.5,-199 -102.7,-132.9 -154.1,-312.7 -154.1,-539.8l0 -315.6c0,-226.3 52.6,-405.3 158.2,-536.5 105.6,-131.7 249.5,-197.4 431.8,-197.4 168,0 298,50.2 389.8,150.9 92.1,100.7 142.2,244.6 150,431.7l-221 0c-9.4,-141.8 -39.5,-243 -89.7,-303.3 -50.1,-60.7 -126.4,-90.9 -229.1,-90.9 -118.7,0 -210,46.5 -273.6,139 -63.6,93 -95.4,228.7 -95.4,407.7l0 318.9c0,176.1 29.3,311.1 88.9,404.8 59.1,94.2 145.9,141.1 259.7,141.1 113.7,0 196.1,-28.1 246.2,-84.8 50.2,-56.7 81.2,-158.2 93,-304.6l221 0z"/>
   <path id="3" class="fil2" d="M5828.7 15945.7c-9.4,186.4 -62,329.1 -157,428.5 -95,99.5 -229.5,149.3 -403.2,149.3 -174.5,0 -312.7,-66.5 -415.5,-199 -102.7,-132.9 -154.1,-312.7 -154.1,-539.8l0 -315.6c0,-226.3 52.6,-405.3 158.2,-536.5 105.6,-131.7 249.5,-197.4 431.8,-197.4 168,0 298,50.2 389.8,150.9 92.1,100.7 142.2,244.6 150,431.7l-221 0c-9.4,-141.8 -39.5,-243 -89.7,-303.3 -50.1,-60.7 -126.4,-90.9 -229.1,-90.9 -118.7,0 -210,46.5 -273.6,139 -63.6,93 -95.4,228.7 -95.4,407.7l0 318.9c0,176.1 29.3,311.1 88.9,404.8 59.1,94.2 145.9,141.1 259.7,141.1 113.7,0 196.1,-28.1 246.2,-84.8 50.2,-56.7 81.2,-158.2 93,-304.6l221 0z"/>
   <polygon id="4" class="fil2" points="7031.4,14759.7 7249.9,14759.7 7249.9,16499 7031.4,16499 7031.4,15158.8 6353.8,16499 6134,16499 6134,14759.7 6353.8,14759.7 6353.8,16099.8 "/>
   <path id="5" class="fil2" d="M8546.1 14759.7l218.5 0 0 1739.3 -218.5 0 0 -1340.2 -677.6 1340.2 -219.8 0 0 -1739.3 219.8 0 0 1340.1 677.6 -1340.1zm22.8 -433c0,97 -33,175.3 -98.6,234.4 -65.7,59.1 -152.1,88.5 -258.5,88.5 -106.8,0 -193.3,-29.8 -259.3,-89.3 -66.1,-59.1 -99.1,-137.4 -99.1,-233.6l180.2 0c0,55.8 15.1,99.5 45.3,131.3 30.5,31.4 74.6,47.3 132.9,47.3 55.4,0 99.1,-15.5 130.5,-46.9 31.8,-31 47.2,-75 47.2,-131.7l179.4 0z"/>
   <path id="6" class="fil2" d="M10244.7 15945.7c-9.4,186.4 -62,329.1 -157,428.5 -95,99.5 -229.5,149.3 -403.2,149.3 -174.5,0 -312.7,-66.5 -415.5,-199 -102.7,-132.9 -154.1,-312.7 -154.1,-539.8l0 -315.6c0,-226.3 52.6,-405.3 158.2,-536.5 105.6,-131.7 249.5,-197.4 431.8,-197.4 168,0 298,50.2 389.8,150.9 92.1,100.7 142.2,244.6 150,431.7l-221 0c-9.4,-141.8 -39.5,-243 -89.7,-303.3 -50.1,-60.7 -126.4,-90.9 -229.1,-90.9 -118.7,0 -210,46.5 -273.6,139 -63.6,93 -95.4,228.7 -95.4,407.7l0 318.9c0,176.1 29.3,311.1 88.9,404.8 59.1,94.2 145.9,141.1 259.7,141.1 113.7,0 196.1,-28.1 246.2,-84.8 50.2,-56.7 81.2,-158.2 93,-304.6l221 0z"/>
   <polygon id="7" class="fil2" points="10934.9,15716.2 10769.8,15716.2 10769.8,16499 10551.3,16499 10551.3,14759.7 10769.8,14759.7 10769.8,15525.4 10903.9,15525.4 11393.6,14759.7 11665.9,14759.7 11113.9,15599.2 11706.3,16499 11438.8,16499 "/>
   <path id="8" class="fil2" d="M12722.8 16044l-587.9 0 -135 455 -224.2 0 560.2 -1739.3 187.1 0 561.4 1739.3 -224.2 0 -137.4 -455zm-530.4 -188.4l474.1 0 -237.7 -790.1 -236.4 790.1z"/>
   <path id="9" class="fil2" d="M14080.5 16499l0 -677.6 -300.9 0 -300.1 677.6 -232.8 0 340.5 -744.5c-189.6,-88.5 -284.2,-245.4 -284.2,-470.5 0,-163.1 45.3,-291.1 136.6,-384.1 91.3,-92.5 218.9,-139.4 382.8,-140.2l477.9 0 0 1739.3 -219.8 0zm-557.7 -1215.8c0,105.2 26.1,189.2 78.7,252.4 52.5,63.6 126.3,95.8 220.9,97.4l258.1 0 0 -685 -255.6 0c-98.7,0 -173.7,29.8 -225.1,89.7 -51.4,59.6 -77,141.5 -77,245.5z"/>
   <path id="10" class="fil2" d="M16068.5 16044l-587.9 0 -135 455 -224.2 0 560.2 -1739.3 187.1 0 561.4 1739.3 -224.2 0 -137.4 -455zm-530.4 -188.4l474.1 0 -237.7 -790.1 -236.4 790.1z"/>
   <path id="11" class="fil2" d="M17744.6 15945.7c-9.4,186.4 -62,329.1 -157,428.5 -95,99.5 -229.5,149.3 -403.2,149.3 -174.5,0 -312.7,-66.5 -415.5,-199 -102.7,-132.9 -154.1,-312.7 -154.1,-539.8l0 -315.6c0,-226.3 52.6,-405.3 158.2,-536.5 105.6,-131.7 249.5,-197.4 431.8,-197.4 168,0 298,50.2 389.8,150.9 92.1,100.7 142.2,244.6 150,431.7l-221 0c-9.4,-141.8 -39.5,-243 -89.7,-303.3 -50.1,-60.7 -126.4,-90.9 -229.1,-90.9 -118.7,0 -210,46.5 -273.6,139 -63.6,93 -95.4,228.7 -95.4,407.7l0 318.9c0,176.1 29.3,311.1 88.9,404.8 59.1,94.2 145.9,141.1 259.7,141.1 113.7,0 196.1,-28.1 246.2,-84.8 50.2,-56.7 81.2,-158.2 93,-304.6l221 0z"/>
   <path id="12" class="fil2" d="M19131.2 15945.7c-9.4,186.4 -62,329.1 -157,428.5 -95,99.5 -229.5,149.3 -403.2,149.3 -174.5,0 -312.7,-66.5 -415.5,-199 -102.7,-132.9 -154.1,-312.7 -154.1,-539.8l0 -315.6c0,-226.3 52.6,-405.3 158.2,-536.5 105.6,-131.7 249.5,-197.4 431.8,-197.4 168,0 298,50.2 389.8,150.9 92.1,100.7 142.2,244.6 150,431.7l-221 0c-9.4,-141.8 -39.5,-243 -89.7,-303.3 -50.1,-60.7 -126.4,-90.9 -229.1,-90.9 -118.7,0 -210,46.5 -273.6,139 -63.6,93 -95.4,228.7 -95.4,407.7l0 318.9c0,176.1 29.3,311.1 88.9,404.8 59.1,94.2 145.9,141.1 259.7,141.1 113.7,0 196.1,-28.1 246.2,-84.8 50.2,-56.7 81.2,-158.2 93,-304.6l221 0z"/>
   <path id="13" class="fil2" d="M20559 15782.2c0,237.7 -50.6,420.4 -151.7,548.8 -101.1,128.5 -245,192.5 -431.4,192.5 -179.4,0 -320.8,-62.4 -424.8,-187.2 -103.6,-124.7 -157.8,-300.9 -161.9,-528.8l0 -327.4c0,-232.8 51.4,-415 154.1,-547.1 102.8,-131.7 246.3,-197.8 430.2,-197.8 183.1,0 325.8,63.2 428.1,189.6 102.3,126 154.9,306.6 157.4,540.6l0 316.8zm-219 -304.5c0,-183.9 -29.7,-320.5 -90.1,-410.2 -59.9,-89.3 -152.1,-134.1 -276.4,-134.1 -120.3,0 -211.2,45.2 -272.8,136.1 -61.9,90.6 -92.9,224.3 -93.7,401.2l0 311.5c0,177.4 30.5,312.8 92.5,405.7 61.6,93.4 153.7,139.9 276.4,139.9 122.8,0 213.3,-42.9 272.4,-128.9 58.7,-86 89.7,-217.7 91.7,-395.1l0 -326.1z"/>
   <polygon id="14" class="fil2" points="20907.2,14759.7 21126.9,14759.7 21126.9,16310.6 21806.6,16310.6 21806.6,14759.7 22025.5,14759.7 22025.5,16305.7 22182.9,16305.7 22161.7,16917.3 21965.6,16917.3 21965.6,16499 20907.2,16499 "/>
   <polygon id="15" class="fil2" points="23366.9,14759.7 23585.4,14759.7 23585.4,16499 23366.9,16499 23366.9,15158.8 22689.3,16499 22469.5,16499 22469.5,14759.7 22689.3,14759.7 22689.3,16099.8 "/>
   <path id="16" class="fil2" d="M24807.4 16044l-587.9 0 -135 455 -224.2 0 560.2 -1739.3 187.1 0 561.4 1739.3 -224.2 0 -137.4 -455zm-530.4 -188.4l474.1 0 -237.7 -790.1 -236.4 790.1z"/>
   <polygon id="17" class="fil2" points="25416.6,14759.7 25636.3,14759.7 25636.3,16310.6 26316,16310.6 26316,14759.7 26534.9,14759.7 26534.9,16305.7 26692.3,16305.7 26671.1,16917.3 26475,16917.3 26475,16499 25416.6,16499 "/>
   <polygon id="18" class="fil2" points="27876.3,14759.7 28094.8,14759.7 28094.8,16499 27876.3,16499 27876.3,15158.8 27198.7,16499 26978.9,16499 26978.9,14759.7 27198.7,14759.7 27198.7,16099.8 "/>
   <path id="19" class="fil2" d="M29243.4 16499l0 -677.6 -300.9 0 -300.1 677.6 -232.8 0 340.5 -744.5c-189.6,-88.5 -284.2,-245.4 -284.2,-470.5 0,-163.1 45.3,-291.1 136.6,-384.1 91.3,-92.5 218.9,-139.4 382.8,-140.2l477.9 0 0 1739.3 -219.8 0zm-557.7 -1215.8c0,105.2 26.1,189.2 78.7,252.4 52.5,63.6 126.3,95.8 220.9,97.4l258.1 0 0 -685 -255.6 0c-98.7,0 -173.7,29.8 -225.1,89.7 -51.4,59.6 -77,141.5 -77,245.5z"/>
   <path class="fil2" d="M1326.3 2695.8l0 -710.8 -315.6 0 -314.8 710.8 -244.2 0 357.1 -781c-198.9,-92.8 -298.1,-257.5 -298.1,-493.5 0,-171.1 47.5,-305.4 143.3,-402.9 95.8,-97.1 229.6,-146.3 401.6,-147.2l501.2 0 0 1824.6 -230.5 0zm-585.1 -1275.4c0,110.3 27.4,198.5 82.6,264.7 55.1,66.8 132.6,100.6 231.8,102.3l270.7 0 0 -718.6 -268.1 0c-103.6,0 -182.2,31.3 -236.1,94.1 -53.9,62.5 -80.9,148.4 -80.9,257.5z"/>
   <path id="1" class="fil2" d="M1973.4 2695.8l0 -1824.6 520.1 0c166,0 291.3,40.7 375.1,121.5 84.3,80.8 126.2,202.3 126.2,364.4 0,85.1 -21.4,160 -64.2,225.4 -42.3,65 -100,115.5 -172.8,151.4 83.4,24.8 149.7,76.6 198.5,154 49.2,77.8 73.6,171.5 73.6,281 0,163.8 -44.9,292.9 -134.8,386.6 -89.8,93.7 -218.1,140.3 -384,140.3l-537.7 0zm229.3 -854.5l0 656.9 313.5 0c86.8,0 155.7,-28.7 206.6,-86 50.9,-57.3 76.5,-137.7 76.5,-241.2 0,-219.8 -92.8,-329.7 -278.4,-329.7l-318.2 0zm0 -192.5l294.7 0c79.1,0 143.3,-26.5 192,-80 49.2,-53.5 73.6,-124.5 73.6,-213 0,-100.5 -22.3,-173.2 -66.7,-218.5 -44.1,-45.8 -111.7,-68.5 -202.8,-68.5l-290.8 0 0 580z"/>
   <path id="2" class="fil2" d="M4546 871.2l0 1824.6 -230.5 0 0 -1627 -510.3 0 -27.3 767.3c-10.3,223.7 -31.2,394.8 -63.8,512.4 -32.9,118.1 -80.4,204.9 -142.8,260.9 -62.9,56 -145,84.7 -247.2,86.4l-70.2 0 0 -197.6 42.8 -2.6c60.7,-5.1 108.6,-28.6 142.9,-70.5 34.2,-42.4 60.3,-109.5 77.8,-201.1 17.5,-91.9 29.9,-232.2 37.2,-420.8l30.4 -932 961 0z"/>
   <path id="3" class="fil2" d="M5749.1 2695.8l0 -710.8 -315.6 0 -314.8 710.8 -244.2 0 357.1 -781c-198.9,-92.8 -298.1,-257.5 -298.1,-493.5 0,-171.1 47.5,-305.4 143.3,-402.9 95.8,-97.1 229.6,-146.3 401.6,-147.2l501.2 0 0 1824.6 -230.5 0zm-585.1 -1275.4c0,110.3 27.4,198.5 82.6,264.7 55.1,66.8 132.6,100.6 231.8,102.3l270.7 0 0 -718.6 -268.1 0c-103.6,0 -182.2,31.3 -236.1,94.1 -53.9,62.5 -80.9,148.4 -80.9,257.5z"/>
   <polygon id="4" class="fil2" points="7270.9,1854.1 6625.5,1854.1 6625.5,2498.2 7377.4,2498.2 7377.4,2695.8 6396.2,2695.8 6396.2,871.2 7365,871.2 7365,1068.8 6625.5,1068.8 6625.5,1656.5 7270.9,1656.5 "/>
   <polygon id="5" class="fil2" points="7965.9,871.2 8442.3,2360.1 8918.4,871.2 9213.9,871.2 9213.9,2695.8 8984.7,2695.8 8984.7,1985.4 9006,1273.3 8528.7,2695.8 8353.4,2695.8 7878.2,1278.4 7899.6,1985.4 7899.6,2695.8 7670.3,2695.8 7670.3,871.2 "/>
   <path id="6" class="fil2" d="M10752.7 2115.4c-9.8,195.5 -65,345.2 -164.6,449.5 -99.7,104.4 -240.8,156.6 -423,156.6 -183.1,0 -328.1,-69.8 -435.8,-208.8 -107.8,-139.4 -161.7,-328 -161.7,-566.2l0 -331.1c0,-237.3 55.2,-425.1 165.9,-562.8 110.8,-138.2 261.8,-207 453,-207 176.2,0 312.6,52.6 408.8,158.2 96.7,105.7 149.3,256.6 157.4,453l-231.8 0c-9.8,-148.9 -41.5,-255 -94.1,-318.3 -52.6,-63.7 -132.6,-95.3 -240.3,-95.3 -124.5,0 -220.3,48.7 -287,145.8 -66.7,97.5 -100.1,240 -100.1,427.7l0 334.5c0,184.7 30.8,326.3 93.2,424.7 62.1,98.8 153.2,148 272.5,148 119.3,0 205.7,-29.5 258.3,-89 52.6,-59.4 85.1,-165.9 97.5,-319.5l231.8 0z"/>
   <path id="7" class="fil2" d="M11859.6 2695.8l0 -710.8 -315.6 0 -314.8 710.8 -244.2 0 357.1 -781c-198.9,-92.8 -298.1,-257.5 -298.1,-493.5 0,-171.1 47.5,-305.4 143.3,-402.9 95.8,-97.1 229.6,-146.3 401.6,-147.2l501.2 0 0 1824.6 -230.5 0zm-585.1 -1275.4c0,110.3 27.4,198.5 82.6,264.7 55.1,66.8 132.6,100.6 231.8,102.3l270.7 0 0 -718.6 -268.1 0c-103.6,0 -182.2,31.3 -236.1,94.1 -53.9,62.5 -80.9,148.4 -80.9,257.5z"/>
   <path id="8" class="fil2" d="M13622.2 1893.4l325.9 -1022.2 265.6 0 -525.2 1519.6c-38.5,97.6 -72.7,166.4 -103.5,206.2 -30.4,39.3 -66.7,70.1 -109.5,92 -42.7,21.8 -96.2,32.5 -160.4,32.5 -57.7,0 -94.1,-3.9 -109,-11.2l5.1 -191.6 98.8 5.2c66.7,0 115.1,-40.7 144.1,-121.5l60.3 -179.2 -501.2 -1352 255.7 0 353.3 1022.2z"/>
   <path id="9" class="fil2" d="M15635.8 871.2l0 1824.6 -230.5 0 0 -755.3c-127.1,43.2 -261.8,65 -404.6,65 -174.6,0 -304.6,-44.5 -389.7,-133.9 -85.1,-89.4 -129.6,-225.4 -133,-408.4l0 -592 230.5 0 0 580c0.9,127.4 23.6,219 68,274.1 44.1,55.2 118.9,82.6 224.2,82.6 131.3,0 266,-22.2 404.6,-66.3l0 -870.4 230.5 0z"/>
   <path id="10" class="fil2" d="M16914.6 2218.5l-616.7 0 -141.6 477.3 -235.2 0 587.7 -1824.6 196.3 0 588.9 1824.6 -235.2 0 -144.2 -477.3zm-556.4 -197.6l497.4 0 -249.3 -828.9 -248.1 828.9z"/>
   <path id="11" class="fil2" d="M18672.9 2115.4c-9.8,195.5 -65,345.2 -164.6,449.5 -99.7,104.4 -240.8,156.6 -423,156.6 -183.1,0 -328.1,-69.8 -435.8,-208.8 -107.8,-139.4 -161.7,-328 -161.7,-566.2l0 -331.1c0,-237.3 55.2,-425.1 165.9,-562.8 110.8,-138.2 261.8,-207 453,-207 176.2,0 312.6,52.6 408.8,158.2 96.7,105.7 149.3,256.6 157.4,453l-231.8 0c-9.8,-148.9 -41.5,-255 -94.1,-318.3 -52.6,-63.7 -132.6,-95.3 -240.3,-95.3 -124.5,0 -220.3,48.7 -287,145.8 -66.7,97.5 -100.1,240 -100.1,427.7l0 334.5c0,184.7 30.8,326.3 93.2,424.7 62.1,98.8 153.2,148 272.5,148 119.3,0 205.7,-29.5 258.3,-89 52.6,-59.4 85.1,-165.9 97.5,-319.5l231.8 0z"/>
   <polygon id="12" class="fil2" points="20013.4,1068.8 19533.5,1068.8 19533.5,2695.8 19304.3,2695.8 19304.3,1068.8 18825.7,1068.8 18825.7,871.2 20013.4,871.2 "/>
   <polygon id="13" class="fil2" points="21476.6,2695.8 21246,2695.8 21246,1854.1 20512.1,1854.1 20512.1,2695.8 20282.4,2695.8 20282.4,871.2 20512.1,871.2 20512.1,1656.5 21246,1656.5 21246,871.2 21476.6,871.2 "/>
   <polygon id="14" class="fil2" points="22825.5,871.2 23054.8,871.2 23054.8,2695.8 22825.5,2695.8 22825.5,1290 22114.7,2695.8 21884.2,2695.8 21884.2,871.2 22114.7,871.2 22114.7,2277.1 "/>
   <polygon id="15" class="fil2" points="23876.8,1874.6 23703.6,1874.6 23703.6,2695.8 23474.4,2695.8 23474.4,871.2 23703.6,871.2 23703.6,1674.5 23844.3,1674.5 24358,871.2 24643.7,871.2 24064.6,1751.9 24686,2695.8 24405.5,2695.8 "/>
   <path id="16" class="fil2" d="M25752.3 2218.5l-616.7 0 -141.6 477.3 -235.2 0 587.7 -1824.6 196.3 0 588.9 1824.6 -235.2 0 -144.2 -477.3zm-556.4 -197.6l497.4 0 -249.3 -828.9 -248.1 828.9z"/>
   <polygon id="17" class="fil2" points="26675.8,871.2 27152.2,2360.1 27628.3,871.2 27923.8,871.2 27923.8,2695.8 27694.6,2695.8 27694.6,1985.4 27715.9,1273.3 27238.6,2695.8 27063.3,2695.8 26588.1,1278.4 26609.5,1985.4 26609.5,2695.8 26380.2,2695.8 26380.2,871.2 "/>
   <polygon id="18" class="fil2" points="29269.7,871.2 29499,871.2 29499,2695.8 29269.7,2695.8 29269.7,1290 28558.9,2695.8 28328.4,2695.8 28328.4,871.2 28558.9,871.2 28558.9,2277.1 "/>
  </g>
 </g>
</svg>
